# xmcd
#
# Track frame offsets: 
#        150
#        12297
#        31098
#        48061
#        59604
#        73012
#        91027
#        103474
#        116897
#        132955
#        143053
#        157279
#        172709
#        191832
#        206949
#        219804
#        236867
#        250062
#        262615
#        277780
#        290085
#        303316
#        316667
#        327400
#        341624
#
# Disc length: 4679 seconds
#
# Revision: 2
# Processed by: cddbd v1.5.2PL0 Copyright (c) Steve Scherf et al.
# Submitted via: ExactAudioCopyFreeDBPlugin 1.0
#
DISCID=6e124519
DTITLE=Gene Watson - Best Of The Best 25 Greatest Hits
DYEAR=2012
DGENRE=Country
TTITLE0=Fourteen Carat Mind
TTITLE1=Paper Rosie
TTITLE2=Nothing Sure Looked Good On You
TTITLE3=You're Out Doing (What I'm Here Doing Without)
TTITLE4=Bedroom Ballad
TTITLE5=Farewell Party
TTITLE6=Got No Reason Now For Going Home
TTITLE7=One Sided Conversation
TTITLE8=Carmen
TTITLE9=Speak Softly (You're Talking To My Heart)
TTITLE10=Don't Waste It On The Blues
TTITLE11=LoveIn The Hot Afternoon
TTITLE12=The Old Man And His Horn
TTITLE13=I Don't Need A Thing At All
TTITLE14=Should I Come Home (Or Should I Go Crazy)
TTITLE15=What She Don't Know Won't Hurt Her
TTITLE16=Because You Believed In Me
TTITLE17=Cowboys Don't Get Lucky All The Time
TTITLE18=This Dream's On Me
TTITLE19=Memories To Burn
TTITLE20=Sometimes I Get Lucky And Forget
TTITLE21=Between This Time And The Next Time
TTITLE22=Pick The Wildwood Flower
TTITLE23=Where Love Begins
TTITLE24=Drinkin' My Way Back Home
EXTD=
EXTT0=
EXTT1=
EXTT2=
EXTT3=
EXTT4=
EXTT5=
EXTT6=
EXTT7=
EXTT8=
EXTT9=
EXTT10=
EXTT11=
EXTT12=
EXTT13=
EXTT14=
EXTT15=
EXTT16=
EXTT17=
EXTT18=
EXTT19=
EXTT20=
EXTT21=
EXTT22=
EXTT23=
EXTT24=
PLAYORDER=
